<mxfile host="Electron" modified="2023-09-27T19:16:14.739Z" agent="Mozilla/5.0 (Macintosh; Intel Mac OS X 10_15_7) AppleWebKit/537.36 (KHTML, like Gecko) draw.io/21.3.7 Chrome/112.0.5615.204 Electron/24.5.0 Safari/537.36" etag="4nOW9XaqGAiju-TNjibL" version="21.3.7" type="device">
  <diagram name="Page-1" id="Ynt6hfB0X-0RhvD5GjSY">
    <mxGraphModel dx="1292" dy="840" grid="1" gridSize="10" guides="1" tooltips="1" connect="1" arrows="1" fold="1" page="1" pageScale="1" pageWidth="1169" pageHeight="827" math="0" shadow="0">
      <root>
        <mxCell id="0" />
        <mxCell id="1" parent="0" />
        <mxCell id="ndpF-Ec6X-15dpnZDPPp-4" value="Security Group 4" style="swimlane;whiteSpace=wrap;html=1;fillColor=#f8cecc;strokeColor=#b85450;" vertex="1" parent="1">
          <mxGeometry x="822.4399999999999" y="160" width="157.48" height="276.7711" as="geometry" />
        </mxCell>
        <mxCell id="ndpF-Ec6X-15dpnZDPPp-68" value="IAM DMZ" style="swimlane;whiteSpace=wrap;html=1;fillColor=#f8cecc;strokeColor=#b85450;" vertex="1" parent="ndpF-Ec6X-15dpnZDPPp-4">
          <mxGeometry x="-1.1368683772161603e-13" y="223.44" width="157.48" height="53.149499999999996" as="geometry" />
        </mxCell>
        <mxCell id="ndpF-Ec6X-15dpnZDPPp-69" value="IAM Proxy" style="rounded=0;whiteSpace=wrap;html=1;fillColor=#f5f5f5;fontColor=#333333;strokeColor=#666666;" vertex="1" parent="ndpF-Ec6X-15dpnZDPPp-68">
          <mxGeometry y="23" width="157.48" height="30" as="geometry" />
        </mxCell>
        <mxCell id="ndpF-Ec6X-15dpnZDPPp-76" value="" style="group" vertex="1" connectable="0" parent="ndpF-Ec6X-15dpnZDPPp-4">
          <mxGeometry x="16" y="30" width="60" height="73" as="geometry" />
        </mxCell>
        <mxCell id="ndpF-Ec6X-15dpnZDPPp-77" value="" style="verticalLabelPosition=bottom;verticalAlign=top;html=1;shape=mxgraph.basic.acute_triangle;dx=0.5;" vertex="1" parent="ndpF-Ec6X-15dpnZDPPp-76">
          <mxGeometry x="1.4300000000000068" width="57.14" height="40" as="geometry" />
        </mxCell>
        <mxCell id="ndpF-Ec6X-15dpnZDPPp-78" value="Active Directory" style="text;html=1;strokeColor=none;fillColor=none;align=center;verticalAlign=middle;whiteSpace=wrap;rounded=0;" vertex="1" parent="ndpF-Ec6X-15dpnZDPPp-76">
          <mxGeometry y="43" width="60" height="30" as="geometry" />
        </mxCell>
        <mxCell id="ndpF-Ec6X-15dpnZDPPp-104" value="S1" style="rounded=0;whiteSpace=wrap;html=1;" vertex="1" parent="ndpF-Ec6X-15dpnZDPPp-4">
          <mxGeometry x="13.040000000000077" y="188.99999999999994" width="30" height="30" as="geometry" />
        </mxCell>
        <mxCell id="ndpF-Ec6X-15dpnZDPPp-105" value="S2" style="rounded=0;whiteSpace=wrap;html=1;" vertex="1" parent="ndpF-Ec6X-15dpnZDPPp-4">
          <mxGeometry x="60.05000000000007" y="182.99999999999994" width="30" height="30" as="geometry" />
        </mxCell>
        <mxCell id="ndpF-Ec6X-15dpnZDPPp-106" value="Sn" style="rounded=0;whiteSpace=wrap;html=1;" vertex="1" parent="ndpF-Ec6X-15dpnZDPPp-4">
          <mxGeometry x="114.44000000000005" y="164.99999999999994" width="30" height="30" as="geometry" />
        </mxCell>
        <mxCell id="ndpF-Ec6X-15dpnZDPPp-16" value="OIDC / OAuth Identity Domain" style="swimlane;childLayout=stackLayout;resizeParent=1;resizeParentMax=0;startSize=20;horizontal=0;horizontalStack=1;" vertex="1" parent="1">
          <mxGeometry x="330" y="569" width="649.92" height="321" as="geometry" />
        </mxCell>
        <mxCell id="ndpF-Ec6X-15dpnZDPPp-20" value="SecureDomain1" style="swimlane;startSize=20;" vertex="1" parent="ndpF-Ec6X-15dpnZDPPp-16">
          <mxGeometry x="20" width="157.48" height="321" as="geometry" />
        </mxCell>
        <mxCell id="ndpF-Ec6X-15dpnZDPPp-26" value="Resource Servers" style="swimlane;whiteSpace=wrap;html=1;" vertex="1" parent="ndpF-Ec6X-15dpnZDPPp-20">
          <mxGeometry x="8.74" y="31" width="140" height="65.7479" as="geometry" />
        </mxCell>
        <mxCell id="ndpF-Ec6X-15dpnZDPPp-34" value="R1" style="rounded=0;whiteSpace=wrap;html=1;" vertex="1" parent="ndpF-Ec6X-15dpnZDPPp-26">
          <mxGeometry x="11.259999999999991" y="29.049999999999955" width="30" height="30" as="geometry" />
        </mxCell>
        <mxCell id="ndpF-Ec6X-15dpnZDPPp-36" value="Rn" style="rounded=0;whiteSpace=wrap;html=1;" vertex="1" parent="ndpF-Ec6X-15dpnZDPPp-26">
          <mxGeometry x="96.06" y="29.049999999999955" width="30" height="30" as="geometry" />
        </mxCell>
        <mxCell id="ndpF-Ec6X-15dpnZDPPp-30" value="Clients" style="swimlane;whiteSpace=wrap;html=1;" vertex="1" parent="ndpF-Ec6X-15dpnZDPPp-20">
          <mxGeometry x="8.740000000000009" y="134" width="140" height="65.7479" as="geometry" />
        </mxCell>
        <mxCell id="ndpF-Ec6X-15dpnZDPPp-46" value="C1" style="rounded=0;whiteSpace=wrap;html=1;" vertex="1" parent="ndpF-Ec6X-15dpnZDPPp-30">
          <mxGeometry x="10.860000000000014" y="30.639999999999986" width="30" height="30" as="geometry" />
        </mxCell>
        <mxCell id="ndpF-Ec6X-15dpnZDPPp-47" value="Cn" style="rounded=0;whiteSpace=wrap;html=1;" vertex="1" parent="ndpF-Ec6X-15dpnZDPPp-30">
          <mxGeometry x="95.66000000000003" y="30.639999999999986" width="30" height="30" as="geometry" />
        </mxCell>
        <mxCell id="ndpF-Ec6X-15dpnZDPPp-48" value="C2" style="rounded=0;whiteSpace=wrap;html=1;" vertex="1" parent="ndpF-Ec6X-15dpnZDPPp-30">
          <mxGeometry x="52.860000000000014" y="30.639999999999986" width="30" height="30" as="geometry" />
        </mxCell>
        <mxCell id="ndpF-Ec6X-15dpnZDPPp-79" value="Key Pair" style="swimlane;fontStyle=0;childLayout=stackLayout;horizontal=1;startSize=26;fillColor=none;horizontalStack=0;resizeParent=1;resizeParentMax=0;resizeLast=0;collapsible=1;marginBottom=0;html=1;" vertex="1" parent="ndpF-Ec6X-15dpnZDPPp-20">
          <mxGeometry x="8.740000000000009" y="239" width="140" height="78" as="geometry" />
        </mxCell>
        <mxCell id="ndpF-Ec6X-15dpnZDPPp-80" value="Public Key" style="text;strokeColor=none;fillColor=none;align=left;verticalAlign=top;spacingLeft=4;spacingRight=4;overflow=hidden;rotatable=0;points=[[0,0.5],[1,0.5]];portConstraint=eastwest;whiteSpace=wrap;html=1;" vertex="1" parent="ndpF-Ec6X-15dpnZDPPp-79">
          <mxGeometry y="26" width="140" height="26" as="geometry" />
        </mxCell>
        <mxCell id="ndpF-Ec6X-15dpnZDPPp-81" value="Private Key" style="text;strokeColor=none;fillColor=none;align=left;verticalAlign=top;spacingLeft=4;spacingRight=4;overflow=hidden;rotatable=0;points=[[0,0.5],[1,0.5]];portConstraint=eastwest;whiteSpace=wrap;html=1;" vertex="1" parent="ndpF-Ec6X-15dpnZDPPp-79">
          <mxGeometry y="52" width="140" height="26" as="geometry" />
        </mxCell>
        <mxCell id="ndpF-Ec6X-15dpnZDPPp-17" value="SecureDomain2" style="swimlane;startSize=20;fillColor=#d5e8d4;strokeColor=#82b366;" vertex="1" parent="ndpF-Ec6X-15dpnZDPPp-16">
          <mxGeometry x="177.48" width="157.48" height="321" as="geometry" />
        </mxCell>
        <mxCell id="ndpF-Ec6X-15dpnZDPPp-27" value="Resource Servers" style="swimlane;whiteSpace=wrap;html=1;" vertex="1" parent="ndpF-Ec6X-15dpnZDPPp-17">
          <mxGeometry x="7.319999999999936" y="31" width="142.1257" height="65.7479" as="geometry" />
        </mxCell>
        <mxCell id="ndpF-Ec6X-15dpnZDPPp-37" value="R1" style="rounded=0;whiteSpace=wrap;html=1;" vertex="1" parent="ndpF-Ec6X-15dpnZDPPp-27">
          <mxGeometry x="12.200000000000045" y="29.049999999999955" width="30" height="30" as="geometry" />
        </mxCell>
        <mxCell id="ndpF-Ec6X-15dpnZDPPp-38" value="Rn" style="rounded=0;whiteSpace=wrap;html=1;" vertex="1" parent="ndpF-Ec6X-15dpnZDPPp-27">
          <mxGeometry x="97" y="29.049999999999955" width="30" height="30" as="geometry" />
        </mxCell>
        <mxCell id="ndpF-Ec6X-15dpnZDPPp-39" value="R2" style="rounded=0;whiteSpace=wrap;html=1;" vertex="1" parent="ndpF-Ec6X-15dpnZDPPp-27">
          <mxGeometry x="54.200000000000045" y="29.049999999999955" width="30" height="30" as="geometry" />
        </mxCell>
        <mxCell id="ndpF-Ec6X-15dpnZDPPp-31" value="Clients" style="swimlane;whiteSpace=wrap;html=1;" vertex="1" parent="ndpF-Ec6X-15dpnZDPPp-17">
          <mxGeometry x="8.740000000000009" y="134" width="140" height="65.7479" as="geometry" />
        </mxCell>
        <mxCell id="ndpF-Ec6X-15dpnZDPPp-49" value="C1" style="rounded=0;whiteSpace=wrap;html=1;" vertex="1" parent="ndpF-Ec6X-15dpnZDPPp-31">
          <mxGeometry x="12.600000000000023" y="30.639999999999986" width="30" height="30" as="geometry" />
        </mxCell>
        <mxCell id="ndpF-Ec6X-15dpnZDPPp-50" value="Cn" style="rounded=0;whiteSpace=wrap;html=1;" vertex="1" parent="ndpF-Ec6X-15dpnZDPPp-31">
          <mxGeometry x="97.39999999999998" y="30.639999999999986" width="30" height="30" as="geometry" />
        </mxCell>
        <mxCell id="ndpF-Ec6X-15dpnZDPPp-51" value="C2" style="rounded=0;whiteSpace=wrap;html=1;" vertex="1" parent="ndpF-Ec6X-15dpnZDPPp-31">
          <mxGeometry x="54.60000000000002" y="30.639999999999986" width="30" height="30" as="geometry" />
        </mxCell>
        <mxCell id="ndpF-Ec6X-15dpnZDPPp-83" value="Key Pair" style="swimlane;fontStyle=0;childLayout=stackLayout;horizontal=1;startSize=26;fillColor=none;horizontalStack=0;resizeParent=1;resizeParentMax=0;resizeLast=0;collapsible=1;marginBottom=0;html=1;" vertex="1" parent="ndpF-Ec6X-15dpnZDPPp-17">
          <mxGeometry x="7.319999999999936" y="238" width="140" height="78" as="geometry" />
        </mxCell>
        <mxCell id="ndpF-Ec6X-15dpnZDPPp-84" value="Public Key" style="text;strokeColor=none;fillColor=none;align=left;verticalAlign=top;spacingLeft=4;spacingRight=4;overflow=hidden;rotatable=0;points=[[0,0.5],[1,0.5]];portConstraint=eastwest;whiteSpace=wrap;html=1;" vertex="1" parent="ndpF-Ec6X-15dpnZDPPp-83">
          <mxGeometry y="26" width="140" height="26" as="geometry" />
        </mxCell>
        <mxCell id="ndpF-Ec6X-15dpnZDPPp-85" value="Private Key" style="text;strokeColor=none;fillColor=none;align=left;verticalAlign=top;spacingLeft=4;spacingRight=4;overflow=hidden;rotatable=0;points=[[0,0.5],[1,0.5]];portConstraint=eastwest;whiteSpace=wrap;html=1;" vertex="1" parent="ndpF-Ec6X-15dpnZDPPp-83">
          <mxGeometry y="52" width="140" height="26" as="geometry" />
        </mxCell>
        <mxCell id="ndpF-Ec6X-15dpnZDPPp-18" value="SecureDomain3" style="swimlane;startSize=20;fillColor=#ffe6cc;strokeColor=#d79b00;" vertex="1" parent="ndpF-Ec6X-15dpnZDPPp-16">
          <mxGeometry x="334.96" width="157.48" height="321" as="geometry" />
        </mxCell>
        <mxCell id="ndpF-Ec6X-15dpnZDPPp-28" value="Resource Servers" style="swimlane;whiteSpace=wrap;html=1;" vertex="1" parent="ndpF-Ec6X-15dpnZDPPp-18">
          <mxGeometry x="8.740000000000009" y="31" width="140" height="65.7479" as="geometry" />
        </mxCell>
        <mxCell id="ndpF-Ec6X-15dpnZDPPp-40" value="R1" style="rounded=0;whiteSpace=wrap;html=1;" vertex="1" parent="ndpF-Ec6X-15dpnZDPPp-28">
          <mxGeometry x="12.599999999999909" y="29.049999999999955" width="30" height="30" as="geometry" />
        </mxCell>
        <mxCell id="ndpF-Ec6X-15dpnZDPPp-41" value="Rn" style="rounded=0;whiteSpace=wrap;html=1;" vertex="1" parent="ndpF-Ec6X-15dpnZDPPp-28">
          <mxGeometry x="97.39999999999998" y="29.049999999999955" width="30" height="30" as="geometry" />
        </mxCell>
        <mxCell id="ndpF-Ec6X-15dpnZDPPp-42" value="R2" style="rounded=0;whiteSpace=wrap;html=1;" vertex="1" parent="ndpF-Ec6X-15dpnZDPPp-28">
          <mxGeometry x="54.59999999999991" y="29.049999999999955" width="30" height="30" as="geometry" />
        </mxCell>
        <mxCell id="ndpF-Ec6X-15dpnZDPPp-32" value="Clients" style="swimlane;whiteSpace=wrap;html=1;fontStyle=0" vertex="1" parent="ndpF-Ec6X-15dpnZDPPp-18">
          <mxGeometry x="8.740000000000009" y="134" width="140" height="65.7479" as="geometry" />
        </mxCell>
        <mxCell id="ndpF-Ec6X-15dpnZDPPp-52" value="C1" style="rounded=0;whiteSpace=wrap;html=1;" vertex="1" parent="ndpF-Ec6X-15dpnZDPPp-32">
          <mxGeometry x="11.099999999999909" y="30.639999999999986" width="30" height="30" as="geometry" />
        </mxCell>
        <mxCell id="ndpF-Ec6X-15dpnZDPPp-53" value="Cn" style="rounded=0;whiteSpace=wrap;html=1;" vertex="1" parent="ndpF-Ec6X-15dpnZDPPp-32">
          <mxGeometry x="95.89999999999998" y="30.639999999999986" width="30" height="30" as="geometry" />
        </mxCell>
        <mxCell id="ndpF-Ec6X-15dpnZDPPp-54" value="C2" style="rounded=0;whiteSpace=wrap;html=1;" vertex="1" parent="ndpF-Ec6X-15dpnZDPPp-32">
          <mxGeometry x="53.09999999999991" y="30.639999999999986" width="30" height="30" as="geometry" />
        </mxCell>
        <mxCell id="ndpF-Ec6X-15dpnZDPPp-86" value="Key Pair" style="swimlane;fontStyle=0;childLayout=stackLayout;horizontal=1;startSize=26;fillColor=none;horizontalStack=0;resizeParent=1;resizeParentMax=0;resizeLast=0;collapsible=1;marginBottom=0;html=1;" vertex="1" parent="ndpF-Ec6X-15dpnZDPPp-18">
          <mxGeometry x="8.740000000000009" y="238" width="140" height="78" as="geometry" />
        </mxCell>
        <mxCell id="ndpF-Ec6X-15dpnZDPPp-87" value="Public Key" style="text;strokeColor=none;fillColor=none;align=left;verticalAlign=top;spacingLeft=4;spacingRight=4;overflow=hidden;rotatable=0;points=[[0,0.5],[1,0.5]];portConstraint=eastwest;whiteSpace=wrap;html=1;" vertex="1" parent="ndpF-Ec6X-15dpnZDPPp-86">
          <mxGeometry y="26" width="140" height="26" as="geometry" />
        </mxCell>
        <mxCell id="ndpF-Ec6X-15dpnZDPPp-88" value="Private Key" style="text;strokeColor=none;fillColor=none;align=left;verticalAlign=top;spacingLeft=4;spacingRight=4;overflow=hidden;rotatable=0;points=[[0,0.5],[1,0.5]];portConstraint=eastwest;whiteSpace=wrap;html=1;" vertex="1" parent="ndpF-Ec6X-15dpnZDPPp-86">
          <mxGeometry y="52" width="140" height="26" as="geometry" />
        </mxCell>
        <mxCell id="ndpF-Ec6X-15dpnZDPPp-19" value="SecureDomain4" style="swimlane;startSize=20;fillColor=#f8cecc;strokeColor=#b85450;" vertex="1" parent="ndpF-Ec6X-15dpnZDPPp-16">
          <mxGeometry x="492.43999999999994" width="157.48" height="321" as="geometry" />
        </mxCell>
        <mxCell id="ndpF-Ec6X-15dpnZDPPp-29" value="Resource Servers" style="swimlane;whiteSpace=wrap;html=1;" vertex="1" parent="ndpF-Ec6X-15dpnZDPPp-19">
          <mxGeometry x="8.740000000000123" y="31" width="140" height="65.7479" as="geometry" />
        </mxCell>
        <mxCell id="ndpF-Ec6X-15dpnZDPPp-43" value="R1" style="rounded=0;whiteSpace=wrap;html=1;" vertex="1" parent="ndpF-Ec6X-15dpnZDPPp-29">
          <mxGeometry x="12.599999999999909" y="29.049999999999955" width="30" height="30" as="geometry" />
        </mxCell>
        <mxCell id="ndpF-Ec6X-15dpnZDPPp-44" value="Rn" style="rounded=0;whiteSpace=wrap;html=1;" vertex="1" parent="ndpF-Ec6X-15dpnZDPPp-29">
          <mxGeometry x="97.39999999999986" y="29.049999999999955" width="30" height="30" as="geometry" />
        </mxCell>
        <mxCell id="ndpF-Ec6X-15dpnZDPPp-45" value="R2" style="rounded=0;whiteSpace=wrap;html=1;" vertex="1" parent="ndpF-Ec6X-15dpnZDPPp-29">
          <mxGeometry x="54.59999999999991" y="29.049999999999955" width="30" height="30" as="geometry" />
        </mxCell>
        <mxCell id="ndpF-Ec6X-15dpnZDPPp-33" value="Clients" style="swimlane;whiteSpace=wrap;html=1;" vertex="1" parent="ndpF-Ec6X-15dpnZDPPp-19">
          <mxGeometry x="8.740000000000123" y="134" width="140" height="65.7479" as="geometry" />
        </mxCell>
        <mxCell id="ndpF-Ec6X-15dpnZDPPp-55" value="C1" style="rounded=0;whiteSpace=wrap;html=1;" vertex="1" parent="ndpF-Ec6X-15dpnZDPPp-33">
          <mxGeometry x="12.199999999999932" y="30.639999999999986" width="30" height="30" as="geometry" />
        </mxCell>
        <mxCell id="ndpF-Ec6X-15dpnZDPPp-56" value="Cn" style="rounded=0;whiteSpace=wrap;html=1;" vertex="1" parent="ndpF-Ec6X-15dpnZDPPp-33">
          <mxGeometry x="97" y="30.639999999999986" width="30" height="30" as="geometry" />
        </mxCell>
        <mxCell id="ndpF-Ec6X-15dpnZDPPp-57" value="C2" style="rounded=0;whiteSpace=wrap;html=1;" vertex="1" parent="ndpF-Ec6X-15dpnZDPPp-33">
          <mxGeometry x="54.19999999999993" y="30.639999999999986" width="30" height="30" as="geometry" />
        </mxCell>
        <mxCell id="ndpF-Ec6X-15dpnZDPPp-89" value="Key Pair" style="swimlane;fontStyle=0;childLayout=stackLayout;horizontal=1;startSize=26;fillColor=none;horizontalStack=0;resizeParent=1;resizeParentMax=0;resizeLast=0;collapsible=1;marginBottom=0;html=1;" vertex="1" parent="ndpF-Ec6X-15dpnZDPPp-19">
          <mxGeometry x="8.740000000000123" y="238" width="140" height="78" as="geometry" />
        </mxCell>
        <mxCell id="ndpF-Ec6X-15dpnZDPPp-90" value="Public Key" style="text;strokeColor=none;fillColor=none;align=left;verticalAlign=top;spacingLeft=4;spacingRight=4;overflow=hidden;rotatable=0;points=[[0,0.5],[1,0.5]];portConstraint=eastwest;whiteSpace=wrap;html=1;" vertex="1" parent="ndpF-Ec6X-15dpnZDPPp-89">
          <mxGeometry y="26" width="140" height="26" as="geometry" />
        </mxCell>
        <mxCell id="ndpF-Ec6X-15dpnZDPPp-91" value="Private Key" style="text;strokeColor=none;fillColor=none;align=left;verticalAlign=top;spacingLeft=4;spacingRight=4;overflow=hidden;rotatable=0;points=[[0,0.5],[1,0.5]];portConstraint=eastwest;whiteSpace=wrap;html=1;" vertex="1" parent="ndpF-Ec6X-15dpnZDPPp-89">
          <mxGeometry y="52" width="140" height="26" as="geometry" />
        </mxCell>
        <mxCell id="ndpF-Ec6X-15dpnZDPPp-22" value="SAML Engine" style="swimlane;childLayout=stackLayout;resizeParent=1;resizeParentMax=0;horizontal=0;startSize=20;horizontalStack=0;html=1;" vertex="1" parent="1">
          <mxGeometry x="110" y="569" width="210" height="236.22" as="geometry" />
        </mxCell>
        <mxCell id="ndpF-Ec6X-15dpnZDPPp-65" value="SP 1" style="swimlane;startSize=20;horizontal=0;html=1;" vertex="1" parent="ndpF-Ec6X-15dpnZDPPp-22">
          <mxGeometry x="20" width="190" height="59.055" as="geometry" />
        </mxCell>
        <mxCell id="ndpF-Ec6X-15dpnZDPPp-23" value="SP 1" style="swimlane;startSize=20;horizontal=0;html=1;" vertex="1" parent="ndpF-Ec6X-15dpnZDPPp-22">
          <mxGeometry x="20" y="59.055" width="190" height="59.055" as="geometry" />
        </mxCell>
        <mxCell id="ndpF-Ec6X-15dpnZDPPp-24" value="SP2" style="swimlane;startSize=20;horizontal=0;html=1;" vertex="1" parent="ndpF-Ec6X-15dpnZDPPp-22">
          <mxGeometry x="20" y="118.11" width="190" height="59.055" as="geometry" />
        </mxCell>
        <mxCell id="ndpF-Ec6X-15dpnZDPPp-25" value="SP n" style="swimlane;startSize=20;horizontal=0;html=1;" vertex="1" parent="ndpF-Ec6X-15dpnZDPPp-22">
          <mxGeometry x="20" y="177.165" width="190" height="59.055" as="geometry" />
        </mxCell>
        <mxCell id="ndpF-Ec6X-15dpnZDPPp-35" value="R2" style="rounded=0;whiteSpace=wrap;html=1;" vertex="1" parent="1">
          <mxGeometry x="412" y="629.05" width="30" height="30" as="geometry" />
        </mxCell>
        <mxCell id="ndpF-Ec6X-15dpnZDPPp-63" value="Identity Store" style="swimlane;horizontal=0;whiteSpace=wrap;html=1;" vertex="1" parent="1">
          <mxGeometry x="109.92" y="920" width="870" height="110" as="geometry" />
        </mxCell>
        <mxCell id="ndpF-Ec6X-15dpnZDPPp-70" value="" style="verticalLabelPosition=bottom;verticalAlign=top;html=1;shape=mxgraph.basic.acute_triangle;dx=0.5;" vertex="1" parent="ndpF-Ec6X-15dpnZDPPp-63">
          <mxGeometry x="65.08" y="15.779999999999973" width="100" height="70" as="geometry" />
        </mxCell>
        <mxCell id="ndpF-Ec6X-15dpnZDPPp-92" value="Global Key Pair" style="swimlane;fontStyle=0;childLayout=stackLayout;horizontal=1;startSize=26;fillColor=none;horizontalStack=0;resizeParent=1;resizeParentMax=0;resizeLast=0;collapsible=1;marginBottom=0;html=1;" vertex="1" parent="1">
          <mxGeometry x="110" y="811" width="210" height="78" as="geometry" />
        </mxCell>
        <mxCell id="ndpF-Ec6X-15dpnZDPPp-93" value="Public Key" style="text;strokeColor=none;fillColor=none;align=left;verticalAlign=top;spacingLeft=4;spacingRight=4;overflow=hidden;rotatable=0;points=[[0,0.5],[1,0.5]];portConstraint=eastwest;whiteSpace=wrap;html=1;" vertex="1" parent="ndpF-Ec6X-15dpnZDPPp-92">
          <mxGeometry y="26" width="210" height="26" as="geometry" />
        </mxCell>
        <mxCell id="ndpF-Ec6X-15dpnZDPPp-94" value="Private Key" style="text;strokeColor=none;fillColor=none;align=left;verticalAlign=top;spacingLeft=4;spacingRight=4;overflow=hidden;rotatable=0;points=[[0,0.5],[1,0.5]];portConstraint=eastwest;whiteSpace=wrap;html=1;" vertex="1" parent="ndpF-Ec6X-15dpnZDPPp-92">
          <mxGeometry y="52" width="210" height="26" as="geometry" />
        </mxCell>
        <mxCell id="ndpF-Ec6X-15dpnZDPPp-107" value="" style="endArrow=classic;startArrow=classic;html=1;rounded=0;exitX=0.454;exitY=0;exitDx=0;exitDy=0;exitPerimeter=0;" edge="1" parent="1" source="ndpF-Ec6X-15dpnZDPPp-17">
          <mxGeometry width="50" height="50" relative="1" as="geometry">
            <mxPoint x="480" y="510" as="sourcePoint" />
            <mxPoint x="580" y="440" as="targetPoint" />
          </mxGeometry>
        </mxCell>
        <mxCell id="ndpF-Ec6X-15dpnZDPPp-108" value="https (443)&lt;br&gt;x-oauth-identity-domain=SecureDomain2" style="edgeLabel;html=1;align=center;verticalAlign=middle;resizable=0;points=[];" vertex="1" connectable="0" parent="ndpF-Ec6X-15dpnZDPPp-107">
          <mxGeometry x="-0.0384" y="-3" relative="1" as="geometry">
            <mxPoint as="offset" />
          </mxGeometry>
        </mxCell>
        <mxCell id="ndpF-Ec6X-15dpnZDPPp-109" value="" style="endArrow=classic;startArrow=classic;html=1;rounded=0;exitX=0.454;exitY=0;exitDx=0;exitDy=0;exitPerimeter=0;" edge="1" parent="1">
          <mxGeometry width="50" height="50" relative="1" as="geometry">
            <mxPoint x="743.2" y="569" as="sourcePoint" />
            <mxPoint x="744.2" y="440" as="targetPoint" />
          </mxGeometry>
        </mxCell>
        <mxCell id="ndpF-Ec6X-15dpnZDPPp-110" value="https (443)&lt;br style=&quot;border-color: var(--border-color);&quot;&gt;x-oauth-identity-domain=SecureDomain3" style="edgeLabel;html=1;align=center;verticalAlign=middle;resizable=0;points=[];" vertex="1" connectable="0" parent="ndpF-Ec6X-15dpnZDPPp-109">
          <mxGeometry x="-0.0384" y="-3" relative="1" as="geometry">
            <mxPoint x="-3" y="-27" as="offset" />
          </mxGeometry>
        </mxCell>
        <mxCell id="ndpF-Ec6X-15dpnZDPPp-111" value="" style="endArrow=classic;startArrow=classic;html=1;rounded=0;exitX=0.454;exitY=0;exitDx=0;exitDy=0;exitPerimeter=0;" edge="1" parent="1">
          <mxGeometry width="50" height="50" relative="1" as="geometry">
            <mxPoint x="900.6800000000001" y="569" as="sourcePoint" />
            <mxPoint x="901.6800000000001" y="440" as="targetPoint" />
          </mxGeometry>
        </mxCell>
        <mxCell id="ndpF-Ec6X-15dpnZDPPp-112" value="https (443)&lt;br style=&quot;border-color: var(--border-color);&quot;&gt;x-oauth-identity-domain=SecureDomain4" style="edgeLabel;html=1;align=center;verticalAlign=middle;resizable=0;points=[];" vertex="1" connectable="0" parent="ndpF-Ec6X-15dpnZDPPp-111">
          <mxGeometry x="-0.0384" y="-3" relative="1" as="geometry">
            <mxPoint as="offset" />
          </mxGeometry>
        </mxCell>
        <mxCell id="ndpF-Ec6X-15dpnZDPPp-113" value="Security Group 2" style="swimlane;whiteSpace=wrap;html=1;fillColor=#d5e8d4;strokeColor=#82b366;" vertex="1" parent="1">
          <mxGeometry x="250" y="10" width="157.64000000000001" height="430.15" as="geometry" />
        </mxCell>
        <mxCell id="ndpF-Ec6X-15dpnZDPPp-119" value="Application Layer" style="swimlane;horizontal=0;whiteSpace=wrap;html=1;startSize=40;" vertex="1" parent="ndpF-Ec6X-15dpnZDPPp-113">
          <mxGeometry x="-0.4" y="23.77" width="157.48" height="93.3069" as="geometry" />
        </mxCell>
        <mxCell id="ndpF-Ec6X-15dpnZDPPp-121" value="A1" style="rounded=0;whiteSpace=wrap;html=1;" vertex="1" parent="ndpF-Ec6X-15dpnZDPPp-119">
          <mxGeometry x="64.30000000000007" y="19.229999999999933" width="30" height="30" as="geometry" />
        </mxCell>
        <mxCell id="ndpF-Ec6X-15dpnZDPPp-122" value="A2" style="rounded=0;whiteSpace=wrap;html=1;" vertex="1" parent="ndpF-Ec6X-15dpnZDPPp-119">
          <mxGeometry x="74.30000000000007" y="53.22999999999993" width="30" height="30" as="geometry" />
        </mxCell>
        <mxCell id="ndpF-Ec6X-15dpnZDPPp-123" value="An" style="rounded=0;whiteSpace=wrap;html=1;" vertex="1" parent="ndpF-Ec6X-15dpnZDPPp-119">
          <mxGeometry x="110.00000000000006" y="56.22999999999993" width="30" height="30" as="geometry" />
        </mxCell>
        <mxCell id="ndpF-Ec6X-15dpnZDPPp-125" value="A3" style="rounded=0;whiteSpace=wrap;html=1;" vertex="1" parent="ndpF-Ec6X-15dpnZDPPp-119">
          <mxGeometry x="104.31000000000006" y="13.229999999999933" width="30" height="30" as="geometry" />
        </mxCell>
        <mxCell id="ndpF-Ec6X-15dpnZDPPp-120" value="Service Layer" style="swimlane;horizontal=0;whiteSpace=wrap;html=1;startSize=40;" vertex="1" parent="ndpF-Ec6X-15dpnZDPPp-113">
          <mxGeometry x="0.1599999999999966" y="210.07999999999998" width="157.48" height="93.3069" as="geometry" />
        </mxCell>
        <mxCell id="ndpF-Ec6X-15dpnZDPPp-126" value="S1" style="rounded=0;whiteSpace=wrap;html=1;" vertex="1" parent="ndpF-Ec6X-15dpnZDPPp-120">
          <mxGeometry x="51.30000000000001" y="24.999999999999943" width="30" height="30" as="geometry" />
        </mxCell>
        <mxCell id="ndpF-Ec6X-15dpnZDPPp-127" value="S2" style="rounded=0;whiteSpace=wrap;html=1;" vertex="1" parent="ndpF-Ec6X-15dpnZDPPp-120">
          <mxGeometry x="111.31" y="11.999999999999943" width="30" height="30" as="geometry" />
        </mxCell>
        <mxCell id="ndpF-Ec6X-15dpnZDPPp-128" value="Sn" style="rounded=0;whiteSpace=wrap;html=1;" vertex="1" parent="ndpF-Ec6X-15dpnZDPPp-120">
          <mxGeometry x="96.99999999999999" y="54.99999999999994" width="30" height="30" as="geometry" />
        </mxCell>
        <mxCell id="ndpF-Ec6X-15dpnZDPPp-129" value="IAM DMZ" style="swimlane;whiteSpace=wrap;html=1;fillColor=#d5e8d4;strokeColor=#82b366;" vertex="1" parent="ndpF-Ec6X-15dpnZDPPp-113">
          <mxGeometry x="0.160000000000025" y="377" width="157.48" height="53.149499999999996" as="geometry" />
        </mxCell>
        <mxCell id="ndpF-Ec6X-15dpnZDPPp-130" value="IAM Proxy" style="rounded=0;whiteSpace=wrap;html=1;fillColor=#f5f5f5;fontColor=#333333;strokeColor=#666666;" vertex="1" parent="ndpF-Ec6X-15dpnZDPPp-129">
          <mxGeometry y="23" width="157.48" height="30" as="geometry" />
        </mxCell>
        <mxCell id="ndpF-Ec6X-15dpnZDPPp-131" value="API Gateway" style="swimlane;horizontal=0;whiteSpace=wrap;html=1;startSize=40;" vertex="1" parent="ndpF-Ec6X-15dpnZDPPp-113">
          <mxGeometry x="0.1599999999999966" y="116.77000000000001" width="157.48" height="93.3069" as="geometry" />
        </mxCell>
        <mxCell id="ndpF-Ec6X-15dpnZDPPp-132" value="Security Group 3" style="swimlane;whiteSpace=wrap;html=1;fillColor=#ffe6cc;strokeColor=#d79b00;" vertex="1" parent="1">
          <mxGeometry x="450" y="10" width="157.64000000000001" height="430.15" as="geometry" />
        </mxCell>
        <mxCell id="ndpF-Ec6X-15dpnZDPPp-133" value="Application Layer" style="swimlane;horizontal=0;whiteSpace=wrap;html=1;startSize=40;" vertex="1" parent="ndpF-Ec6X-15dpnZDPPp-132">
          <mxGeometry x="-0.4" y="23.77" width="157.48" height="93.3069" as="geometry" />
        </mxCell>
        <mxCell id="ndpF-Ec6X-15dpnZDPPp-134" value="A1" style="rounded=0;whiteSpace=wrap;html=1;" vertex="1" parent="ndpF-Ec6X-15dpnZDPPp-133">
          <mxGeometry x="44.30000000000007" y="23.229999999999933" width="30" height="30" as="geometry" />
        </mxCell>
        <mxCell id="ndpF-Ec6X-15dpnZDPPp-135" value="A2" style="rounded=0;whiteSpace=wrap;html=1;" vertex="1" parent="ndpF-Ec6X-15dpnZDPPp-133">
          <mxGeometry x="78.31000000000007" y="9.999999999999936" width="30" height="30" as="geometry" />
        </mxCell>
        <mxCell id="ndpF-Ec6X-15dpnZDPPp-136" value="An" style="rounded=0;whiteSpace=wrap;html=1;" vertex="1" parent="ndpF-Ec6X-15dpnZDPPp-133">
          <mxGeometry x="80.00000000000006" y="53.22999999999993" width="30" height="30" as="geometry" />
        </mxCell>
        <mxCell id="ndpF-Ec6X-15dpnZDPPp-137" value="A3" style="rounded=0;whiteSpace=wrap;html=1;" vertex="1" parent="ndpF-Ec6X-15dpnZDPPp-133">
          <mxGeometry x="118" y="23.23" width="30" height="26.77" as="geometry" />
        </mxCell>
        <mxCell id="ndpF-Ec6X-15dpnZDPPp-138" value="Service Layer" style="swimlane;horizontal=0;whiteSpace=wrap;html=1;startSize=40;" vertex="1" parent="ndpF-Ec6X-15dpnZDPPp-132">
          <mxGeometry x="0.1599999999999966" y="210.07999999999998" width="157.48" height="93.3069" as="geometry" />
        </mxCell>
        <mxCell id="ndpF-Ec6X-15dpnZDPPp-139" value="S1" style="rounded=0;whiteSpace=wrap;html=1;" vertex="1" parent="ndpF-Ec6X-15dpnZDPPp-138">
          <mxGeometry x="49.84000000000001" y="49.919999999999945" width="30" height="30" as="geometry" />
        </mxCell>
        <mxCell id="ndpF-Ec6X-15dpnZDPPp-140" value="S2" style="rounded=0;whiteSpace=wrap;html=1;" vertex="1" parent="ndpF-Ec6X-15dpnZDPPp-138">
          <mxGeometry x="59.84" y="11.999999999999943" width="30" height="30" as="geometry" />
        </mxCell>
        <mxCell id="ndpF-Ec6X-15dpnZDPPp-141" value="Sn" style="rounded=0;whiteSpace=wrap;html=1;" vertex="1" parent="ndpF-Ec6X-15dpnZDPPp-138">
          <mxGeometry x="87.83999999999999" y="59.309999999999945" width="30" height="30" as="geometry" />
        </mxCell>
        <mxCell id="ndpF-Ec6X-15dpnZDPPp-145" value="S3" style="rounded=0;whiteSpace=wrap;html=1;" vertex="1" parent="ndpF-Ec6X-15dpnZDPPp-138">
          <mxGeometry x="104.84" y="11.999999999999957" width="30" height="30" as="geometry" />
        </mxCell>
        <mxCell id="ndpF-Ec6X-15dpnZDPPp-146" value="S4" style="rounded=0;whiteSpace=wrap;html=1;" vertex="1" parent="ndpF-Ec6X-15dpnZDPPp-138">
          <mxGeometry x="123.84000000000003" y="49.99999999999994" width="30" height="30" as="geometry" />
        </mxCell>
        <mxCell id="ndpF-Ec6X-15dpnZDPPp-142" value="IAM DMZ" style="swimlane;whiteSpace=wrap;html=1;fillColor=#ffe6cc;strokeColor=#d79b00;" vertex="1" parent="ndpF-Ec6X-15dpnZDPPp-132">
          <mxGeometry x="0.160000000000025" y="377" width="157.48" height="53.149499999999996" as="geometry" />
        </mxCell>
        <mxCell id="ndpF-Ec6X-15dpnZDPPp-143" value="IAM Proxy" style="rounded=0;whiteSpace=wrap;html=1;fillColor=#f5f5f5;fontColor=#333333;strokeColor=#666666;" vertex="1" parent="ndpF-Ec6X-15dpnZDPPp-142">
          <mxGeometry y="23" width="157.48" height="30" as="geometry" />
        </mxCell>
        <mxCell id="ndpF-Ec6X-15dpnZDPPp-144" value="API Gateway" style="swimlane;horizontal=0;whiteSpace=wrap;html=1;startSize=40;" vertex="1" parent="ndpF-Ec6X-15dpnZDPPp-132">
          <mxGeometry x="0.1599999999999966" y="116.77000000000001" width="157.48" height="93.3069" as="geometry" />
        </mxCell>
      </root>
    </mxGraphModel>
  </diagram>
</mxfile>
